<svg width="124" height="122" viewBox="0 0 124 122" fill="none" xmlns="http://www.w3.org/2000/svg">
<g clip-path="url(#clip0_28_31919)">
<path d="M77.3457 120.268L19.1062 103.63L19.9879 102.845L106.475 25.8558L3.71372 53.5044L3.37775 52.2508L111.436 23.1765L21.7317 103.03L77.7014 119.021L77.3457 120.268Z" fill="url(#paint0_linear_28_31919)"/>
<path d="M103.371 64.3741L110.85 61.3064L103.371 58.2387L100.303 50.7612L97.2353 58.2387L89.7554 61.3064L97.2353 64.3741L100.303 71.8517L103.371 64.3741Z" fill="url(#paint1_linear_28_31919)"/>
<path d="M85.0452 86.5183C64.4427 86.5183 47.7408 69.818 47.7408 49.2159C47.7408 34.6492 56.1106 22.0655 68.286 15.9235C67.8762 15.912 67.478 15.8612 67.065 15.8612C42.7389 15.8612 23.0182 35.58 23.0182 59.9037C23.0182 84.2273 42.7389 103.946 67.065 103.946C84.2045 103.946 99.0217 94.1367 106.303 79.8454C100.269 84.0389 92.9512 86.515 85.0469 86.515L85.0452 86.5183Z" fill="url(#paint2_linear_28_31919)"/>
<path d="M108.957 33.1695C113.736 33.1695 117.61 29.2956 117.61 24.517C117.61 19.7384 113.736 15.8645 108.957 15.8645C104.178 15.8645 100.303 19.7384 100.303 24.517C100.303 29.2956 104.178 33.1695 108.957 33.1695Z" fill="url(#paint3_linear_28_31919)"/>
<path d="M6.97892 53.7596C7.46547 51.8634 6.32258 49.9318 4.4262 49.4453C2.52982 48.9588 0.598071 50.1016 0.111516 51.9978C-0.375039 53.894 0.767851 55.8255 2.66423 56.3121C4.56061 56.7986 6.49236 55.6558 6.97892 53.7596Z" fill="url(#paint4_linear_28_31919)"/>
<path d="M63.3005 122C55.106 122 47.1574 120.396 39.6726 117.23C32.4451 114.173 25.9535 109.796 20.378 104.223C14.8041 98.6498 10.4266 92.1588 7.37011 84.932C4.20542 77.4496 2.5993 69.5001 2.5993 61.3064C2.5993 53.1128 4.20378 45.165 7.37011 37.6809C10.4266 30.4541 14.8041 23.9631 20.378 18.3882C25.9518 12.8149 32.4435 8.43781 39.6726 5.38158C47.1558 2.2172 55.106 0.612885 63.3005 0.612885C71.4949 0.612885 79.4435 2.2172 86.9284 5.38322C94.1559 8.43945 100.647 12.8165 106.223 18.3898C111.799 23.9631 116.174 30.4541 119.231 37.6825C122.396 45.165 124.002 53.1144 124.002 61.3081C124.002 69.5017 122.397 77.4496 119.231 84.9336C116.174 92.1604 111.797 98.6514 106.223 104.225C100.649 109.798 94.1575 114.175 86.9284 117.231C79.4452 120.396 71.4949 122.002 63.3005 122.002V122ZM63.3005 1.91076C55.2814 1.91076 47.5016 3.48066 40.179 6.57785C33.1056 9.57017 26.7533 13.8522 21.2974 19.3075C15.8415 24.7628 11.5591 31.1145 8.5665 38.1873C5.469 45.5091 3.89894 53.2882 3.89894 61.3064C3.89894 69.3247 5.469 77.1038 8.5665 84.4256C11.5575 91.4984 15.8415 97.8501 21.2974 103.305C26.7533 108.761 33.1056 113.043 40.179 116.035C47.5016 119.132 55.2814 120.702 63.3005 120.702C71.3196 120.702 79.0994 119.132 86.4219 116.035C93.4954 113.044 99.8477 108.761 105.304 103.305C110.759 97.8501 115.042 91.4984 118.034 84.4256C121.132 77.1038 122.702 69.3247 122.702 61.3064C122.702 53.2882 121.132 45.5091 118.034 38.1873C115.042 31.1145 110.759 24.7628 105.304 19.3075C99.8477 13.8522 93.4954 9.57017 86.4219 6.57785C79.0994 3.48066 71.3196 1.91076 63.3005 1.91076Z" fill="url(#paint5_linear_28_31919)"/>
<path d="M36.9619 14.6732C41.0142 14.6732 44.2992 11.3885 44.2992 7.33658C44.2992 3.2847 41.0142 0 36.9619 0C32.9096 0 29.6246 3.2847 29.6246 7.33658C29.6246 11.3885 32.9096 14.6732 36.9619 14.6732Z" fill="url(#paint6_linear_28_31919)"/>
<path d="M11.3723 103.949C11.3723 98.7465 15.5908 94.5284 20.7926 94.5284C25.9944 94.5284 30.2146 98.7465 30.2146 103.949C30.2146 109.152 25.9961 113.369 20.7926 113.369C15.5891 113.369 11.3723 109.151 11.3723 103.949Z" fill="url(#paint7_linear_28_31919)"/>
</g>
<defs>
<linearGradient id="paint0_linear_28_31919" x1="57.4039" y1="157.097" x2="57.4039" y2="12.8493" gradientUnits="userSpaceOnUse">
<stop stop-color="#5F39FF"/>
<stop offset="0.08" stop-color="#614FFE"/>
<stop offset="0.67" stop-color="#73E9FE"/>
<stop offset="1" stop-color="#FFE98D"/>
</linearGradient>
<linearGradient id="paint1_linear_28_31919" x1="100.302" y1="79.8518" x2="100.302" y2="48.5179" gradientUnits="userSpaceOnUse">
<stop stop-color="#5F39FF"/>
<stop offset="0.08" stop-color="#614FFE"/>
<stop offset="0.67" stop-color="#73E9FE"/>
<stop offset="1" stop-color="#FFE98D"/>
</linearGradient>
<linearGradient id="paint2_linear_28_31919" x1="34.1089" y1="43.9646" x2="86.459" y2="85.068" gradientUnits="userSpaceOnUse">
<stop stop-color="#FFE98D"/>
<stop offset="0.1" stop-color="#FED694"/>
<stop offset="0.91" stop-color="#FC3DD3"/>
</linearGradient>
<linearGradient id="paint3_linear_28_31919" x1="108.956" y1="39.7337" x2="108.956" y2="14.0239" gradientUnits="userSpaceOnUse">
<stop stop-color="#5F39FF"/>
<stop offset="0.08" stop-color="#614FFE"/>
<stop offset="0.67" stop-color="#73E9FE"/>
<stop offset="1" stop-color="#FFE98D"/>
</linearGradient>
<linearGradient id="paint4_linear_28_31919" x1="9.58385" y1="54.4281" x2="-0.618868" y2="51.8101" gradientUnits="userSpaceOnUse">
<stop stop-color="#5F39FF"/>
<stop offset="0.08" stop-color="#614FFE"/>
<stop offset="0.67" stop-color="#73E9FE"/>
<stop offset="1" stop-color="#FFE98D"/>
</linearGradient>
<linearGradient id="paint5_linear_28_31919" x1="63.2969" y1="168.047" x2="63.2969" y2="-12.2987" gradientUnits="userSpaceOnUse">
<stop stop-color="#5F39FF"/>
<stop offset="0.08" stop-color="#614FFE"/>
<stop offset="0.67" stop-color="#73E9FE"/>
<stop offset="1" stop-color="#FFE98D"/>
</linearGradient>
<linearGradient id="paint6_linear_28_31919" x1="36.9615" y1="20.2391" x2="36.9615" y2="-1.56072" gradientUnits="userSpaceOnUse">
<stop stop-color="#5F39FF"/>
<stop offset="0.08" stop-color="#614FFE"/>
<stop offset="0.67" stop-color="#73E9FE"/>
<stop offset="1" stop-color="#FFE98D"/>
</linearGradient>
<linearGradient id="paint7_linear_28_31919" x1="20.7929" y1="120.515" x2="20.7929" y2="92.5244" gradientUnits="userSpaceOnUse">
<stop stop-color="#5F39FF"/>
<stop offset="0.08" stop-color="#614FFE"/>
<stop offset="0.67" stop-color="#73E9FE"/>
<stop offset="1" stop-color="#FFE98D"/>
</linearGradient>
<clipPath id="clip0_28_31919">
<rect width="124" height="122" fill="white"/>
</clipPath>
</defs>
</svg>
